<svg xmlns="http://www.w3.org/2000/svg" width="341.286" height="52.034" viewBox="0 0 341.286 52.034"><g transform="translate(-130.094 -12.986)"><g transform="translate(157.321 12.986)"><path d="M119.407,532.665H89.488c-2.947,0-2.973,4.52-.033,4.52h27.082q-.689,3.061-1.377,6.115H98.235c-2.947,0-2.973,4.787-.032,4.787h15.88q-.659,2.921-1.317,5.85H85.672c-2.436-10.132-4.872-20.175-7.308-30.318a2.2,2.2,0,0,0-2.189-1.59H64.767c-2.947,0-2.973,4.52-.033,4.52h9.642l7.314,30.461a2.3,2.3,0,0,0,2.188,1.712h30.68A2.32,2.32,0,0,0,116.775,557q2.409-10.732,4.817-21.448A2.308,2.308,0,0,0,119.407,532.665Z" transform="translate(-62.542 -522.029)" fill="#90e041"/><path d="M121.879,574.173a5.879,5.879,0,1,0,5.832,5.878A5.856,5.856,0,0,0,121.879,574.173Z" transform="translate(-75.046 -533.896)" fill="#90e041"/><path d="M97.56,574.173a5.879,5.879,0,1,0,5.831,5.878A5.856,5.856,0,0,0,97.56,574.173Z" transform="translate(-69.363 -533.896)" fill="#90e041"/><path d="M13.3-4.026a9.489,9.489,0,0,0,2.046-.2,10.016,10.016,0,0,0,1.683-.528V-8.4H14.652a1.154,1.154,0,0,1-.825-.281.934.934,0,0,1-.3-.709v-3.069h8.547V-2.31a12.6,12.6,0,0,1-1.922,1.163,12.417,12.417,0,0,1-2.129.8,15.847,15.847,0,0,1-2.409.462A23.868,23.868,0,0,1,12.87.264,12.6,12.6,0,0,1,7.986-.668,11.868,11.868,0,0,1,4.1-3.242,11.847,11.847,0,0,1,1.526-7.136a12.666,12.666,0,0,1-.932-4.892,13.319,13.319,0,0,1,.891-4.942,11.13,11.13,0,0,1,2.549-3.886A11.566,11.566,0,0,1,8.044-23.4,14.493,14.493,0,0,1,13.3-24.3a15.306,15.306,0,0,1,2.822.248,13.881,13.881,0,0,1,2.434.676,11.2,11.2,0,0,1,2.038,1.023,10.975,10.975,0,0,1,1.65,1.287l-1.617,2.458a1.8,1.8,0,0,1-.553.544,1.313,1.313,0,0,1-.7.2,1.932,1.932,0,0,1-1.023-.33q-.66-.4-1.246-.685a7.6,7.6,0,0,0-1.2-.47,7.84,7.84,0,0,0-1.287-.264A12.628,12.628,0,0,0,13.1-19.7a6.925,6.925,0,0,0-2.822.553,6.049,6.049,0,0,0-2.137,1.559,7.052,7.052,0,0,0-1.361,2.417A9.744,9.744,0,0,0,6.3-12.028a10.117,10.117,0,0,0,.528,3.4,7.3,7.3,0,0,0,1.46,2.508A6.2,6.2,0,0,0,10.5-4.562,7.16,7.16,0,0,0,13.3-4.026ZM25.476,0V-17.11h3.036a2.589,2.589,0,0,1,.635.066,1.114,1.114,0,0,1,.429.206.88.88,0,0,1,.264.371,3.348,3.348,0,0,1,.157.561l.281,1.6A8.385,8.385,0,0,1,32.389-16.6a4.291,4.291,0,0,1,2.557-.841,2.947,2.947,0,0,1,1.881.561l-.66,3.762a.734.734,0,0,1-.264.487.9.9,0,0,1-.528.14,3.5,3.5,0,0,1-.66-.074,5.116,5.116,0,0,0-.957-.074,3.513,3.513,0,0,0-3.168,2.145V0ZM46.728-17.375a9.882,9.882,0,0,1,3.548.611,7.78,7.78,0,0,1,2.747,1.749A7.878,7.878,0,0,1,54.8-12.251,9.97,9.97,0,0,1,55.44-8.6,10.151,10.151,0,0,1,54.8-4.909,7.933,7.933,0,0,1,53.023-2.12,7.818,7.818,0,0,1,50.276-.355a9.764,9.764,0,0,1-3.548.619,9.879,9.879,0,0,1-3.572-.619A7.972,7.972,0,0,1,40.384-2.12a7.818,7.818,0,0,1-1.8-2.789A10.151,10.151,0,0,1,37.95-8.6a9.971,9.971,0,0,1,.635-3.655,7.764,7.764,0,0,1,1.8-2.764,7.934,7.934,0,0,1,2.772-1.749A10,10,0,0,1,46.728-17.375Zm0,13.844a2.905,2.905,0,0,0,2.6-1.246,6.89,6.89,0,0,0,.833-3.787,6.846,6.846,0,0,0-.833-3.779,2.912,2.912,0,0,0-2.6-1.238,2.984,2.984,0,0,0-2.657,1.238,6.792,6.792,0,0,0-.841,3.779,6.835,6.835,0,0,0,.841,3.787A2.977,2.977,0,0,0,46.728-3.531Zm23.859-9.521a2.828,2.828,0,0,1-.445.446.984.984,0,0,1-.611.165,1.314,1.314,0,0,1-.685-.181l-.685-.4a5.194,5.194,0,0,0-.891-.4A3.835,3.835,0,0,0,66-13.613a3.56,3.56,0,0,0-1.625.346,3.01,3.01,0,0,0-1.13.99,4.524,4.524,0,0,0-.66,1.576,9.413,9.413,0,0,0-.215,2.1,6.411,6.411,0,0,0,.949,3.779A3.045,3.045,0,0,0,65.934-3.5a3.656,3.656,0,0,0,1.411-.223,4.275,4.275,0,0,0,.883-.495l.668-.5a1.235,1.235,0,0,1,.767-.231,1.057,1.057,0,0,1,.924.446l1.485,1.831A8.08,8.08,0,0,1,70.406-1.2a8.36,8.36,0,0,1-1.79.891,9.24,9.24,0,0,1-1.84.446,13.546,13.546,0,0,1-1.8.124A7.717,7.717,0,0,1,61.982-.33a7.337,7.337,0,0,1-2.508-1.724,8.258,8.258,0,0,1-1.716-2.78A10.415,10.415,0,0,1,57.123-8.6a10.568,10.568,0,0,1,.553-3.457,7.848,7.848,0,0,1,1.633-2.789A7.6,7.6,0,0,1,61.982-16.7a9.367,9.367,0,0,1,3.688-.677,8.99,8.99,0,0,1,3.531.643A8.473,8.473,0,0,1,71.94-14.85Zm11.022-4.323a8.81,8.81,0,0,1,3.11.528,6.761,6.761,0,0,1,2.425,1.535,7,7,0,0,1,1.584,2.467A9.052,9.052,0,0,1,89.3-9.537a7.222,7.222,0,0,1-.049.94,1.489,1.489,0,0,1-.182.578.691.691,0,0,1-.355.3,1.662,1.662,0,0,1-.569.082H78.276a4.824,4.824,0,0,0,1.3,3.11,3.878,3.878,0,0,0,2.723.965,4.873,4.873,0,0,0,1.535-.214,7.741,7.741,0,0,0,1.147-.478q.5-.264.924-.478a1.919,1.919,0,0,1,.883-.215,1.057,1.057,0,0,1,.924.446L89.2-2.673A7.6,7.6,0,0,1,87.491-1.2a8.874,8.874,0,0,1-1.881.891A10.2,10.2,0,0,1,83.68.14a14.487,14.487,0,0,1-1.84.124,9.606,9.606,0,0,1-3.374-.586A7.754,7.754,0,0,1,75.71-2.062a8.214,8.214,0,0,1-1.865-2.871,10.727,10.727,0,0,1-.685-3.993,9.037,9.037,0,0,1,.586-3.25,8.006,8.006,0,0,1,1.683-2.69A8.013,8.013,0,0,1,78.086-16.7,8.768,8.768,0,0,1,81.609-17.375Zm.1,3.531a3.082,3.082,0,0,0-2.293.833,4.341,4.341,0,0,0-1.089,2.4h6.385a4.515,4.515,0,0,0-.157-1.188,2.88,2.88,0,0,0-.511-1.031,2.6,2.6,0,0,0-.932-.734A3.188,3.188,0,0,0,81.708-13.844ZM92.235,0V-17.11h3.036a2.589,2.589,0,0,1,.635.066,1.114,1.114,0,0,1,.429.206.88.88,0,0,1,.264.371,3.347,3.347,0,0,1,.157.561l.281,1.6A8.385,8.385,0,0,1,99.148-16.6a4.291,4.291,0,0,1,2.557-.841,2.947,2.947,0,0,1,1.881.561l-.66,3.762a.734.734,0,0,1-.264.487.9.9,0,0,1-.528.14,3.5,3.5,0,0,1-.66-.074,5.116,5.116,0,0,0-.957-.074,3.513,3.513,0,0,0-3.168,2.145V0ZM112.86,4.438a1.83,1.83,0,0,1-.561.751,1.826,1.826,0,0,1-1.056.239h-3.828l3.3-6.93L103.884-17.11H108.4a1.444,1.444,0,0,1,.924.264,1.417,1.417,0,0,1,.462.627L112.6-8.844A16.253,16.253,0,0,1,113.24-6.8q.165-.528.363-1.04t.38-1.039l2.541-7.342a1.252,1.252,0,0,1,.52-.635,1.485,1.485,0,0,1,.833-.256H122Zm23.546-15.428q.33.627.635,1.3t.586,1.386q.28-.726.594-1.411t.643-1.328l6.171-12.144a2.017,2.017,0,0,1,.338-.487,1.108,1.108,0,0,1,.388-.256,1.626,1.626,0,0,1,.487-.1q.272-.016.635-.017h4.257V0h-4.917V-13.827q0-1.007.1-2.178L139.953-3.647a2.1,2.1,0,0,1-.8.875,2.213,2.213,0,0,1-1.147.3h-.759a2.213,2.213,0,0,1-1.147-.3,2.1,2.1,0,0,1-.8-.875l-6.4-12.375q.066.577.1,1.147t.033,1.048V0h-4.917V-24.041h4.257q.363,0,.635.017a1.626,1.626,0,0,1,.487.1,1.108,1.108,0,0,1,.388.256,2.017,2.017,0,0,1,.338.487ZM166.914,0a2.4,2.4,0,0,1-1.1-.2,1.513,1.513,0,0,1-.619-.825l-.363-.941q-.644.545-1.238.957a7.843,7.843,0,0,1-1.229.7,6.07,6.07,0,0,1-1.353.429,8.327,8.327,0,0,1-1.592.14,6.982,6.982,0,0,1-2.128-.305,4.441,4.441,0,0,1-1.625-.9,3.954,3.954,0,0,1-1.031-1.477,5.325,5.325,0,0,1-.363-2.038,4.274,4.274,0,0,1,.462-1.864,4.6,4.6,0,0,1,1.6-1.741,10.172,10.172,0,0,1,3.069-1.312,20.593,20.593,0,0,1,4.868-.594v-.726a3.137,3.137,0,0,0-.619-2.17,2.276,2.276,0,0,0-1.757-.668,4.662,4.662,0,0,0-1.485.2,6.676,6.676,0,0,0-1.031.446q-.454.247-.883.446a2.425,2.425,0,0,1-1.023.2,1.546,1.546,0,0,1-.9-.256,1.9,1.9,0,0,1-.586-.635l-.924-1.6a10.4,10.4,0,0,1,3.44-2.038,12.06,12.06,0,0,1,4.051-.668,7.408,7.408,0,0,1,2.8.5,6.019,6.019,0,0,1,2.112,1.4,6.128,6.128,0,0,1,1.328,2.137,7.679,7.679,0,0,1,.462,2.706V0ZM161.04-3.118a4.058,4.058,0,0,0,1.732-.346,5.278,5.278,0,0,0,1.5-1.122V-6.963a16.982,16.982,0,0,0-2.525.264,6.132,6.132,0,0,0-1.568.495,1.9,1.9,0,0,0-.8.676,1.6,1.6,0,0,0-.223.825,1.434,1.434,0,0,0,.479,1.229A2.335,2.335,0,0,0,161.04-3.118Zm11.847,8.547V-17.11h3.168a1.412,1.412,0,0,1,.8.214,1.145,1.145,0,0,1,.454.643l.38,1.254a8.6,8.6,0,0,1,1.064-.99,7.012,7.012,0,0,1,1.221-.767,6.729,6.729,0,0,1,1.4-.5,6.982,6.982,0,0,1,1.642-.181,5.27,5.27,0,0,1,2.475.594,5.7,5.7,0,0,1,1.964,1.716,8.66,8.66,0,0,1,1.3,2.747,13.276,13.276,0,0,1,.47,3.688,11.368,11.368,0,0,1-.536,3.564,8.955,8.955,0,0,1-1.5,2.838,6.917,6.917,0,0,1-2.31,1.881A6.532,6.532,0,0,1,181.9.264a5.83,5.83,0,0,1-2.244-.38A6.092,6.092,0,0,1,178-1.138V5.429Zm8.349-18.958a4.42,4.42,0,0,0-1.015.107,3.728,3.728,0,0,0-.842.305,3.191,3.191,0,0,0-.718.5,7.454,7.454,0,0,0-.66.7v7.26a3.233,3.233,0,0,0,1.254.9,3.979,3.979,0,0,0,1.419.256,3.014,3.014,0,0,0,1.3-.281,2.656,2.656,0,0,0,1.031-.9,4.79,4.79,0,0,0,.685-1.609,10.077,10.077,0,0,0,.247-2.409,11.082,11.082,0,0,0-.2-2.277,4.691,4.691,0,0,0-.553-1.493,2.146,2.146,0,0,0-.85-.817A2.437,2.437,0,0,0,181.236-13.53ZM191.961,5.429V-17.11h3.168a1.412,1.412,0,0,1,.8.214,1.145,1.145,0,0,1,.454.643l.38,1.254a8.6,8.6,0,0,1,1.064-.99,7.012,7.012,0,0,1,1.221-.767,6.729,6.729,0,0,1,1.4-.5,6.982,6.982,0,0,1,1.642-.181,5.27,5.27,0,0,1,2.475.594,5.7,5.7,0,0,1,1.964,1.716,8.66,8.66,0,0,1,1.3,2.747A13.276,13.276,0,0,1,208.3-8.7a11.368,11.368,0,0,1-.536,3.564,8.955,8.955,0,0,1-1.5,2.838,6.917,6.917,0,0,1-2.31,1.881,6.532,6.532,0,0,1-2.978.676,5.83,5.83,0,0,1-2.244-.38,6.092,6.092,0,0,1-1.65-1.023V5.429ZM200.31-13.53a4.42,4.42,0,0,0-1.015.107,3.728,3.728,0,0,0-.842.305,3.191,3.191,0,0,0-.718.5,7.454,7.454,0,0,0-.66.7v7.26a3.233,3.233,0,0,0,1.254.9,3.979,3.979,0,0,0,1.419.256,3.014,3.014,0,0,0,1.3-.281,2.656,2.656,0,0,0,1.031-.9,4.79,4.79,0,0,0,.685-1.609,10.077,10.077,0,0,0,.247-2.409,11.082,11.082,0,0,0-.2-2.277,4.691,4.691,0,0,0-.553-1.493,2.146,2.146,0,0,0-.85-.817A2.437,2.437,0,0,0,200.31-13.53Zm18.051-3.845a8.81,8.81,0,0,1,3.11.528,6.761,6.761,0,0,1,2.426,1.535,7,7,0,0,1,1.584,2.467,9.052,9.052,0,0,1,.569,3.308A7.22,7.22,0,0,1,226-8.6a1.489,1.489,0,0,1-.181.578.691.691,0,0,1-.355.3,1.662,1.662,0,0,1-.569.082h-9.867a4.824,4.824,0,0,0,1.3,3.11,3.878,3.878,0,0,0,2.722.965,4.873,4.873,0,0,0,1.535-.214,7.741,7.741,0,0,0,1.147-.478q.5-.264.924-.478a1.919,1.919,0,0,1,.883-.215,1.057,1.057,0,0,1,.924.446l1.485,1.831A7.6,7.6,0,0,1,224.243-1.2a8.874,8.874,0,0,1-1.881.891,10.2,10.2,0,0,1-1.93.446,14.487,14.487,0,0,1-1.84.124,9.606,9.606,0,0,1-3.374-.586,7.754,7.754,0,0,1-2.755-1.741A8.213,8.213,0,0,1,210.6-4.933a10.727,10.727,0,0,1-.685-3.993,9.036,9.036,0,0,1,.586-3.25,8.006,8.006,0,0,1,1.683-2.69,8.013,8.013,0,0,1,2.656-1.831A8.768,8.768,0,0,1,218.361-17.375Zm.1,3.531a3.082,3.082,0,0,0-2.294.833,4.341,4.341,0,0,0-1.089,2.4h6.385a4.515,4.515,0,0,0-.157-1.188,2.88,2.88,0,0,0-.512-1.031,2.6,2.6,0,0,0-.932-.734A3.188,3.188,0,0,0,218.46-13.844ZM228.987,0V-17.11h3.036a2.589,2.589,0,0,1,.635.066,1.114,1.114,0,0,1,.429.206.88.88,0,0,1,.264.371,3.348,3.348,0,0,1,.157.561l.28,1.6A8.385,8.385,0,0,1,235.9-16.6a4.291,4.291,0,0,1,2.558-.841,2.947,2.947,0,0,1,1.881.561l-.66,3.762a.734.734,0,0,1-.264.487.9.9,0,0,1-.528.14,3.5,3.5,0,0,1-.66-.074,5.116,5.116,0,0,0-.957-.074,3.513,3.513,0,0,0-3.168,2.145V0Z" transform="translate(73.72 33.812)" fill="#fff"/></g><g transform="translate(131.594 28.005)" opacity="0.744"><line x1="25.727" transform="translate(0 9.433)" fill="none" stroke="#45778c" stroke-linecap="round" stroke-width="3"/><line x1="12.863" transform="translate(10.291 0)" fill="none" stroke="#45778c" stroke-linecap="round" stroke-width="3"/><line x1="15.436" transform="translate(10.291 18.009)" fill="none" stroke="#45778c" stroke-linecap="round" stroke-width="3"/></g></g></svg>