<svg xmlns="http://www.w3.org/2000/svg" width="261.54" height="97.655" viewBox="0 0 261.54 97.655">
  <g id="Group_9" data-name="Group 9" transform="translate(-68.758 -12.986)">
    <g id="Component_1_3" data-name="Component 1 – 3" transform="translate(68.758 12.986)">
      <g id="Group_2" data-name="Group 2" transform="translate(90.392)">
        <path id="Path_1" data-name="Path 1" d="M123.449,533.421H91.4c-3.157,0-3.185,4.842-.035,4.842h29.007q-.737,3.279-1.475,6.55H100.772c-3.157,0-3.185,5.127-.034,5.127h17.008q-.705,3.129-1.41,6.265H87.316C84.707,545.353,82.1,534.6,79.49,523.732a2.351,2.351,0,0,0-2.344-1.7H64.925c-3.157,0-3.185,4.841-.035,4.841H75.217L83.05,559.5a2.466,2.466,0,0,0,2.343,1.834h32.861a2.485,2.485,0,0,0,2.375-1.845q2.581-11.5,5.159-22.972A2.472,2.472,0,0,0,123.449,533.421Z" transform="translate(-62.542 -522.029)" fill="#72d427"/>
        <path id="Path_2" data-name="Path 2" d="M122.294,574.173a6.3,6.3,0,1,0,6.246,6.3A6.272,6.272,0,0,0,122.294,574.173Z" transform="translate(-72.131 -531.033)" fill="#72d427"/>
        <path id="Path_3" data-name="Path 3" d="M97.975,574.173a6.3,6.3,0,1,0,6.245,6.3A6.272,6.272,0,0,0,97.975,574.173Z" transform="translate(-67.773 -531.033)" fill="#72d427"/>
      </g>
      <path id="GroceryMapper" d="M14.508-4.392a10.352,10.352,0,0,0,2.232-.216,10.926,10.926,0,0,0,1.836-.576V-9.162H15.984a1.259,1.259,0,0,1-.9-.306,1.019,1.019,0,0,1-.324-.774V-13.59h9.324V-2.52a13.741,13.741,0,0,1-2.1,1.269,13.546,13.546,0,0,1-2.322.873,17.288,17.288,0,0,1-2.628.5,26.038,26.038,0,0,1-3,.162A13.751,13.751,0,0,1,8.712-.729,12.947,12.947,0,0,1,4.473-3.537,12.924,12.924,0,0,1,1.665-7.785,13.817,13.817,0,0,1,.648-13.122a14.53,14.53,0,0,1,.972-5.391A12.142,12.142,0,0,1,4.4-22.752a12.617,12.617,0,0,1,4.374-2.772,15.811,15.811,0,0,1,5.733-.99,16.7,16.7,0,0,1,3.078.27,15.144,15.144,0,0,1,2.655.738,12.218,12.218,0,0,1,2.223,1.116,11.973,11.973,0,0,1,1.8,1.4L22.5-20.3a1.959,1.959,0,0,1-.6.594,1.432,1.432,0,0,1-.765.216,2.107,2.107,0,0,1-1.116-.36q-.72-.432-1.359-.747a8.292,8.292,0,0,0-1.305-.513,8.553,8.553,0,0,0-1.4-.288,13.777,13.777,0,0,0-1.656-.09,7.554,7.554,0,0,0-3.078.6,6.6,6.6,0,0,0-2.331,1.7A7.694,7.694,0,0,0,7.4-16.551a10.629,10.629,0,0,0-.522,3.429,11.037,11.037,0,0,0,.576,3.708A7.967,7.967,0,0,0,9.045-6.678a6.764,6.764,0,0,0,2.412,1.7A7.811,7.811,0,0,0,14.508-4.392ZM27.792,0V-18.666H31.1a2.824,2.824,0,0,1,.693.072,1.215,1.215,0,0,1,.468.225.96.96,0,0,1,.288.4,3.652,3.652,0,0,1,.171.612l.306,1.746a9.147,9.147,0,0,1,2.3-2.5,4.681,4.681,0,0,1,2.79-.918,3.214,3.214,0,0,1,2.052.612l-.72,4.1a.8.8,0,0,1-.288.531.977.977,0,0,1-.576.153,3.82,3.82,0,0,1-.72-.081,5.581,5.581,0,0,0-1.044-.081,3.833,3.833,0,0,0-3.456,2.34V0ZM50.976-18.954a10.78,10.78,0,0,1,3.87.666,8.488,8.488,0,0,1,3,1.908,8.6,8.6,0,0,1,1.944,3.015,10.877,10.877,0,0,1,.693,3.987,11.074,11.074,0,0,1-.693,4.023,8.655,8.655,0,0,1-1.944,3.042,8.529,8.529,0,0,1-3,1.926,10.652,10.652,0,0,1-3.87.675,10.777,10.777,0,0,1-3.9-.675,8.7,8.7,0,0,1-3.024-1.926,8.529,8.529,0,0,1-1.962-3.042A11.074,11.074,0,0,1,41.4-9.378a10.877,10.877,0,0,1,.693-3.987,8.47,8.47,0,0,1,1.962-3.015,8.655,8.655,0,0,1,3.024-1.908A10.907,10.907,0,0,1,50.976-18.954Zm0,15.1a3.169,3.169,0,0,0,2.835-1.359,7.516,7.516,0,0,0,.909-4.131,7.468,7.468,0,0,0-.909-4.122,3.176,3.176,0,0,0-2.835-1.35,3.255,3.255,0,0,0-2.9,1.35,7.409,7.409,0,0,0-.918,4.122,7.457,7.457,0,0,0,.918,4.131A3.247,3.247,0,0,0,50.976-3.852ZM77-14.238a3.086,3.086,0,0,1-.486.486,1.073,1.073,0,0,1-.666.18,1.434,1.434,0,0,1-.747-.2l-.747-.441a5.666,5.666,0,0,0-.972-.441A4.184,4.184,0,0,0,72-14.85a3.883,3.883,0,0,0-1.773.378,3.283,3.283,0,0,0-1.233,1.08,4.935,4.935,0,0,0-.72,1.719,10.269,10.269,0,0,0-.234,2.3,6.994,6.994,0,0,0,1.035,4.122,3.322,3.322,0,0,0,2.853,1.44,3.988,3.988,0,0,0,1.539-.243,4.664,4.664,0,0,0,.963-.54l.729-.549A1.348,1.348,0,0,1,76-5.4,1.153,1.153,0,0,1,77-4.914l1.62,2A8.814,8.814,0,0,1,76.806-1.3a9.119,9.119,0,0,1-1.953.972,10.08,10.08,0,0,1-2.007.486,14.778,14.778,0,0,1-1.962.135A8.419,8.419,0,0,1,67.617-.36a8,8,0,0,1-2.736-1.881,9.009,9.009,0,0,1-1.872-3.033,11.362,11.362,0,0,1-.693-4.1,11.528,11.528,0,0,1,.6-3.771A8.561,8.561,0,0,1,64.7-16.191a8.285,8.285,0,0,1,2.916-2.025,10.218,10.218,0,0,1,4.023-.738,9.807,9.807,0,0,1,3.852.7A9.243,9.243,0,0,1,78.48-16.2Zm12.024-4.716a9.611,9.611,0,0,1,3.393.576A7.376,7.376,0,0,1,95.067-16.7a7.64,7.64,0,0,1,1.728,2.691,9.875,9.875,0,0,1,.621,3.609,7.877,7.877,0,0,1-.054,1.026,1.624,1.624,0,0,1-.2.63.754.754,0,0,1-.387.324,1.813,1.813,0,0,1-.621.09H85.392a5.262,5.262,0,0,0,1.422,3.393,4.231,4.231,0,0,0,2.97,1.053,5.316,5.316,0,0,0,1.674-.234,8.445,8.445,0,0,0,1.251-.522q.549-.288,1.008-.522A2.093,2.093,0,0,1,94.68-5.4a1.153,1.153,0,0,1,1.008.486l1.62,2A8.294,8.294,0,0,1,95.445-1.3a9.681,9.681,0,0,1-2.052.972,11.123,11.123,0,0,1-2.106.486A15.8,15.8,0,0,1,89.28.288,10.48,10.48,0,0,1,85.6-.351a8.458,8.458,0,0,1-3.006-1.9,8.96,8.96,0,0,1-2.034-3.132,11.7,11.7,0,0,1-.747-4.356,9.858,9.858,0,0,1,.639-3.546,8.734,8.734,0,0,1,1.836-2.934,8.742,8.742,0,0,1,2.9-2A9.565,9.565,0,0,1,89.028-18.954Zm.108,3.852a3.362,3.362,0,0,0-2.5.909,4.736,4.736,0,0,0-1.188,2.619h6.966a4.925,4.925,0,0,0-.171-1.3,3.142,3.142,0,0,0-.558-1.125,2.839,2.839,0,0,0-1.017-.8A3.478,3.478,0,0,0,89.136-15.1ZM100.62,0V-18.666h3.312a2.824,2.824,0,0,1,.693.072,1.215,1.215,0,0,1,.468.225.96.96,0,0,1,.288.4,3.652,3.652,0,0,1,.171.612l.306,1.746a9.147,9.147,0,0,1,2.3-2.5,4.681,4.681,0,0,1,2.79-.918,3.214,3.214,0,0,1,2.052.612l-.72,4.1a.8.8,0,0,1-.288.531.977.977,0,0,1-.576.153,3.82,3.82,0,0,1-.72-.081,5.581,5.581,0,0,0-1.044-.081,3.833,3.833,0,0,0-3.456,2.34V0Zm22.5,4.842a2,2,0,0,1-.612.819,1.992,1.992,0,0,1-1.152.261H117.18l3.6-7.56-7.452-17.028h4.932a1.575,1.575,0,0,1,1.008.288,1.546,1.546,0,0,1,.5.684l3.06,8.046a17.73,17.73,0,0,1,.7,2.232q.18-.576.4-1.134t.414-1.134l2.772-8.01a1.366,1.366,0,0,1,.567-.693,1.62,1.62,0,0,1,.909-.279h4.5Zm25.686-16.83q.36.684.693,1.422t.639,1.512q.306-.792.648-1.539t.7-1.449L158.22-25.29a2.2,2.2,0,0,1,.369-.531,1.208,1.208,0,0,1,.423-.279,1.773,1.773,0,0,1,.531-.108q.3-.018.693-.018h4.644V0h-5.364V-15.084q0-1.1.108-2.376L152.676-3.978a2.289,2.289,0,0,1-.873.954,2.415,2.415,0,0,1-1.251.324h-.828a2.415,2.415,0,0,1-1.251-.324,2.289,2.289,0,0,1-.873-.954l-6.984-13.5q.072.63.108,1.251t.036,1.143V0H135.4V-26.226h4.644q.4,0,.693.018a1.773,1.773,0,0,1,.531.108,1.208,1.208,0,0,1,.423.279,2.2,2.2,0,0,1,.369.531ZM182.088,0a2.614,2.614,0,0,1-1.2-.216,1.65,1.65,0,0,1-.675-.9l-.4-1.026q-.7.594-1.35,1.044a8.557,8.557,0,0,1-1.341.765,6.622,6.622,0,0,1-1.476.468,9.084,9.084,0,0,1-1.737.153,7.616,7.616,0,0,1-2.322-.333,4.844,4.844,0,0,1-1.773-.981A4.313,4.313,0,0,1,168.7-2.637a5.81,5.81,0,0,1-.4-2.223,4.662,4.662,0,0,1,.5-2.034,5.018,5.018,0,0,1,1.746-1.9,11.1,11.1,0,0,1,3.348-1.431,22.465,22.465,0,0,1,5.31-.648v-.792a3.422,3.422,0,0,0-.675-2.367,2.483,2.483,0,0,0-1.917-.729,5.086,5.086,0,0,0-1.62.216,7.283,7.283,0,0,0-1.125.486q-.5.27-.963.486a2.645,2.645,0,0,1-1.116.216,1.687,1.687,0,0,1-.981-.279,2.072,2.072,0,0,1-.639-.693l-1.008-1.746a11.347,11.347,0,0,1,3.753-2.223,13.157,13.157,0,0,1,4.419-.729,8.082,8.082,0,0,1,3.051.549,6.566,6.566,0,0,1,2.3,1.53,6.686,6.686,0,0,1,1.449,2.331,8.377,8.377,0,0,1,.5,2.952V0ZM175.68-3.4a4.427,4.427,0,0,0,1.89-.378A5.758,5.758,0,0,0,179.208-5V-7.6a18.525,18.525,0,0,0-2.754.288,6.69,6.69,0,0,0-1.71.54,2.07,2.07,0,0,0-.873.738,1.747,1.747,0,0,0-.243.9,1.564,1.564,0,0,0,.522,1.341A2.547,2.547,0,0,0,175.68-3.4ZM188.6,5.922V-18.666h3.456a1.54,1.54,0,0,1,.873.234,1.249,1.249,0,0,1,.495.7l.414,1.368A9.381,9.381,0,0,1,195-17.442a7.648,7.648,0,0,1,1.332-.837,7.341,7.341,0,0,1,1.53-.549,7.617,7.617,0,0,1,1.791-.2,5.749,5.749,0,0,1,2.7.648,6.222,6.222,0,0,1,2.142,1.872,9.447,9.447,0,0,1,1.413,3,14.483,14.483,0,0,1,.513,4.023,12.4,12.4,0,0,1-.585,3.888A9.769,9.769,0,0,1,204.2-2.5a7.546,7.546,0,0,1-2.52,2.052,7.126,7.126,0,0,1-3.249.738,6.361,6.361,0,0,1-2.448-.414,6.646,6.646,0,0,1-1.8-1.116V5.922Zm9.108-20.682a4.822,4.822,0,0,0-1.107.117,4.067,4.067,0,0,0-.918.333,3.481,3.481,0,0,0-.783.549,8.132,8.132,0,0,0-.72.765v7.92a3.527,3.527,0,0,0,1.368.981,4.341,4.341,0,0,0,1.548.279,3.288,3.288,0,0,0,1.422-.306,2.9,2.9,0,0,0,1.125-.981,5.225,5.225,0,0,0,.747-1.755,10.993,10.993,0,0,0,.27-2.628,12.09,12.09,0,0,0-.216-2.484,5.117,5.117,0,0,0-.6-1.629,2.341,2.341,0,0,0-.927-.891A2.659,2.659,0,0,0,197.712-14.76Zm11.7,20.682V-18.666h3.456a1.54,1.54,0,0,1,.873.234,1.249,1.249,0,0,1,.495.7l.414,1.368a9.381,9.381,0,0,1,1.161-1.08,7.65,7.65,0,0,1,1.332-.837,7.341,7.341,0,0,1,1.53-.549,7.617,7.617,0,0,1,1.791-.2,5.749,5.749,0,0,1,2.7.648,6.222,6.222,0,0,1,2.142,1.872,9.447,9.447,0,0,1,1.413,3,14.483,14.483,0,0,1,.513,4.023,12.4,12.4,0,0,1-.585,3.888,9.769,9.769,0,0,1-1.638,3.1,7.546,7.546,0,0,1-2.52,2.052,7.126,7.126,0,0,1-3.249.738,6.361,6.361,0,0,1-2.448-.414,6.646,6.646,0,0,1-1.8-1.116V5.922ZM218.52-14.76a4.822,4.822,0,0,0-1.107.117,4.067,4.067,0,0,0-.918.333,3.481,3.481,0,0,0-.783.549,8.132,8.132,0,0,0-.72.765v7.92a3.527,3.527,0,0,0,1.368.981,4.341,4.341,0,0,0,1.548.279,3.288,3.288,0,0,0,1.422-.306,2.9,2.9,0,0,0,1.125-.981,5.224,5.224,0,0,0,.747-1.755,10.993,10.993,0,0,0,.27-2.628,12.09,12.09,0,0,0-.216-2.484,5.117,5.117,0,0,0-.6-1.629,2.341,2.341,0,0,0-.927-.891A2.659,2.659,0,0,0,218.52-14.76Zm19.692-4.194a9.611,9.611,0,0,1,3.393.576,7.376,7.376,0,0,1,2.646,1.674,7.64,7.64,0,0,1,1.728,2.691A9.875,9.875,0,0,1,246.6-10.4a7.879,7.879,0,0,1-.054,1.026,1.624,1.624,0,0,1-.2.63.754.754,0,0,1-.387.324,1.813,1.813,0,0,1-.621.09H234.576A5.262,5.262,0,0,0,236-4.941a4.231,4.231,0,0,0,2.97,1.053,5.316,5.316,0,0,0,1.674-.234,8.445,8.445,0,0,0,1.251-.522q.549-.288,1.008-.522a2.093,2.093,0,0,1,.963-.234,1.153,1.153,0,0,1,1.008.486l1.62,2A8.3,8.3,0,0,1,244.629-1.3a9.681,9.681,0,0,1-2.052.972,11.122,11.122,0,0,1-2.106.486,15.8,15.8,0,0,1-2.007.135,10.48,10.48,0,0,1-3.681-.639,8.458,8.458,0,0,1-3.006-1.9,8.96,8.96,0,0,1-2.034-3.132A11.7,11.7,0,0,1,229-9.738a9.858,9.858,0,0,1,.639-3.546,8.734,8.734,0,0,1,1.836-2.934,8.742,8.742,0,0,1,2.9-2A9.565,9.565,0,0,1,238.212-18.954Zm.108,3.852a3.362,3.362,0,0,0-2.5.909,4.736,4.736,0,0,0-1.188,2.619H241.6a4.925,4.925,0,0,0-.171-1.3,3.142,3.142,0,0,0-.558-1.125,2.839,2.839,0,0,0-1.017-.8A3.478,3.478,0,0,0,238.32-15.1ZM249.8,0V-18.666h3.312a2.824,2.824,0,0,1,.693.072,1.215,1.215,0,0,1,.468.225.96.96,0,0,1,.288.4,3.652,3.652,0,0,1,.171.612l.306,1.746a9.147,9.147,0,0,1,2.3-2.5,4.681,4.681,0,0,1,2.79-.918,3.214,3.214,0,0,1,2.052.612l-.72,4.1a.8.8,0,0,1-.288.531.977.977,0,0,1-.576.153,3.82,3.82,0,0,1-.72-.081,5.581,5.581,0,0,0-1.044-.081,3.833,3.833,0,0,0-3.456,2.34V0Z" transform="translate(-0.648 91.733)" fill="#fff"/>
    </g>
    <g id="Group_3" data-name="Group 3" transform="translate(131.594 29.073)">
      <line id="Line_1" data-name="Line 1" x1="27.555" transform="translate(0 10.104)" fill="none" stroke="#45778c" stroke-linecap="round" stroke-width="3"/>
      <line id="Line_2" data-name="Line 2" x1="13.778" transform="translate(11.022 0)" fill="none" stroke="#45778c" stroke-linecap="round" stroke-width="3"/>
      <line id="Line_3" data-name="Line 3" x1="16.533" transform="translate(11.022 19.289)" fill="none" stroke="#45778c" stroke-linecap="round" stroke-width="3"/>
    </g>
  </g>
</svg>
