<svg xmlns="http://www.w3.org/2000/svg" width="263" height="99.733" viewBox="0 0 263 99.733">
  <g id="Group_9" data-name="Group 9" transform="translate(-68.11 -12.986)">
    <g id="Component_1_3" data-name="Component 1 – 3" transform="translate(68.11 12.986)">
      <g id="Group_2" data-name="Group 2" transform="translate(91.039)">
        <path id="Path_1" data-name="Path 1" d="M123.449,533.421H91.4c-3.157,0-3.185,4.842-.035,4.842h29.007q-.737,3.279-1.475,6.55H100.772c-3.157,0-3.185,5.127-.034,5.127h17.008q-.705,3.129-1.41,6.265H87.316C84.707,545.353,82.1,534.6,79.49,523.732a2.351,2.351,0,0,0-2.344-1.7H64.925c-3.157,0-3.185,4.841-.035,4.841H75.217L83.05,559.5a2.466,2.466,0,0,0,2.343,1.834h32.861a2.485,2.485,0,0,0,2.375-1.845q2.581-11.5,5.159-22.972A2.472,2.472,0,0,0,123.449,533.421Z" transform="translate(-62.542 -522.029)" fill="#72d427"/>
        <path id="Path_2" data-name="Path 2" d="M122.294,574.173a6.3,6.3,0,1,0,6.246,6.3A6.272,6.272,0,0,0,122.294,574.173Z" transform="translate(-72.131 -531.033)" fill="#72d427"/>
        <path id="Path_3" data-name="Path 3" d="M97.975,574.173a6.3,6.3,0,1,0,6.245,6.3A6.272,6.272,0,0,0,97.975,574.173Z" transform="translate(-67.773 -531.033)" fill="#72d427"/>
      </g>
      <text id="GroceryMapper" transform="translate(0 91.733)" fill="#fff" font-size="36" font-family="Lato-Black, Lato" font-weight="800"><tspan x="0" y="0">GroceryMapper</tspan></text>
    </g>
    <g id="Group_3" data-name="Group 3" transform="translate(131.594 29.073)">
      <line id="Line_1" data-name="Line 1" x1="27.555" transform="translate(0 10.104)" fill="none" stroke="#45778c" stroke-linecap="round" stroke-width="3"/>
      <line id="Line_2" data-name="Line 2" x1="13.778" transform="translate(11.022 0)" fill="none" stroke="#45778c" stroke-linecap="round" stroke-width="3"/>
      <line id="Line_3" data-name="Line 3" x1="16.533" transform="translate(11.022 19.289)" fill="none" stroke="#45778c" stroke-linecap="round" stroke-width="3"/>
    </g>
  </g>
</svg>
