<svg xmlns="http://www.w3.org/2000/svg" width="468.736" height="414.915" viewBox="0 0 468.736 414.915"><g transform="translate(-56.017 -84.223)"><g transform="translate(56.017 102.612)"><path d="M58.595,227.9C32.407,131.827,212.156,87.621,307.626,102.147c120.775,18.357,188,84.509,184.631,185.8-3.372,100.376-117.814,157.223-202.734,114.406-41.886-21.112-72.194-59.107-113.887-81.089C126.088,295.213,74.957,287.95,58.595,227.9Z" transform="translate(-56.017 -99.44)" fill="rgba(227,246,212,0.09)" opacity="0.861"/></g><g transform="translate(56.129 471.778)"><ellipse cx="234.312" cy="13.68" rx="234.312" ry="13.68" fill="#1c5d75"/></g><g transform="translate(85.64 91.337)"><path d="M292,285.69H392.05a7.7,7.7,0,0,1,7.7,7.7h0a7.7,7.7,0,0,1-7.7,7.7H292Z" transform="translate(-36.443 -49.336)" fill="#1dab52"/><path d="M292,285.69H392.05a7.7,7.7,0,0,1,7.7,7.7h0a7.7,7.7,0,0,1-7.7,7.7H292Z" transform="translate(-36.443 -49.336)" fill="#fff" opacity="0.6"/><circle cx="11.565" cy="11.565" r="11.565" transform="translate(331.885 196.937) rotate(-76.72)" fill="#9bed49"/><circle cx="11.565" cy="11.565" r="11.565" transform="translate(331.885 196.937) rotate(-76.72)" fill="#fff" opacity="0.8"/><path d="M300.81,247.25h95.6l-9.16,46.454H309.958Z" transform="translate(-34.607 -57.35)" fill="#9bed49"/><path d="M298.85,243.56H399.781a1.426,1.426,0,0,1,1.378,1.825l-1.208,4.121a1.438,1.438,0,0,1-1.378,1.027H300.046a1.438,1.438,0,0,1-1.378-1.027l-1.208-4.121a1.426,1.426,0,0,1,1.39-1.825Z" transform="translate(-35.317 -58.119)" fill="#9bed49"/><path d="M298.85,243.56H399.781a1.426,1.426,0,0,1,1.378,1.825l-1.208,4.121a1.438,1.438,0,0,1-1.378,1.027H300.046a1.438,1.438,0,0,1-1.378-1.027l-1.208-4.121a1.426,1.426,0,0,1,1.39-1.825Z" transform="translate(-35.317 -58.119)" fill="#fff" opacity="0.6"/><path d="M45.922,5.511h0Z" transform="translate(275.533 179.93)" opacity="0.2"/><path d="M331.418,259.258a1.486,1.486,0,0,1-1.607,1.015c-3.625-.616-5.414-3.915-4.1-7.891l9.245-27.9c1.462-4.411,6.236-7.988,10.635-7.988h16.375c4.4,0,6.792,3.625,5.341,7.988L359.1,249.2h-2.743l8.194-24.725c.967-2.888-.6-5.245-3.493-5.245H344.688a7.988,7.988,0,0,0-6.985,5.245l-9.245,27.9c-.786,2.357.121,4.363,2.042,5.015a1.462,1.462,0,0,1,.918,1.861Z" transform="translate(-29.505 -63.763)" fill="#c1ec9f"/><rect width="176.559" height="212.233" rx="8.65" transform="translate(109.742 181.888)" fill="#1dab52"/><path d="M233.245,306.22H88.228a7.71,7.71,0,0,0-7.7,7.71h0a7.7,7.7,0,0,0,7.7,7.734H233.245Z" transform="translate(-80.53 -45.056)" fill="#1dab52"/><path d="M214.282,323.238,171.49,342.61V318.96h42.792Z" transform="translate(-61.567 -42.4)" fill="#263238" opacity="0.3"/><path d="M224.162,306.22H131.8a7.71,7.71,0,0,0-7.7,7.71h0a7.71,7.71,0,0,0,7.7,7.7h92.364Z" transform="translate(-71.447 -45.056)" fill="#fff" opacity="0.7"/><rect width="128.34" height="212.233" rx="8.65" transform="translate(157.96 181.888)" fill="#fff" opacity="0.7"/><rect width="13.112" height="117.549" transform="translate(57.294 276.572)" fill="#1dab52"/><path d="M0,0H13.112V117.549H0Z" transform="translate(57.294 276.572)" fill="#fff" opacity="0.7"/><path d="M141.052,324.072l-13.112,2.84V318.96h13.112Z" transform="translate(-70.646 -42.4)" fill="#1dab52" opacity="0.3"/><rect width="104.304" height="39.553" rx="2.47" transform="translate(169.972 206.976)" fill="#1dab52" opacity="0.3"/><path d="M135.837,237.721c-6.695,0-12.689-4.7-13.692-10.961a11.106,11.106,0,0,1,2.224-8.641,12.858,12.858,0,0,1,9.027-4.749c7.19-.653,13.91,4.242,14.973,10.876a11.13,11.13,0,0,1-2.236,8.653,12.81,12.81,0,0,1-9.015,4.749A11.533,11.533,0,0,1,135.837,237.721Zm-1.148-22.284h-1.1a10.768,10.768,0,0,0-7.541,3.94,9.015,9.015,0,0,0-1.8,7.009c.882,5.571,6.574,9.668,12.677,9.112a10.768,10.768,0,0,0,7.541-3.94,9.015,9.015,0,0,0,1.8-7.009c-.834-5.184-5.909-9.112-11.577-9.112Z" transform="translate(-71.884 -64.425)" fill="#c1ec9f"/><path d="M131.185,237.709H129.9a12.81,12.81,0,0,1-9.015-4.749,11.07,11.07,0,0,1-2.224-8.653c1.051-6.647,7.771-11.541,14.961-10.876a12.834,12.834,0,0,1,9.027,4.749,11.058,11.058,0,0,1,2.224,8.641C143.838,233.008,137.832,237.709,131.185,237.709Zm1.209-22.284c-5.68,0-10.755,3.928-11.589,9.16a9.015,9.015,0,0,0,1.8,7.009,10.768,10.768,0,0,0,7.541,3.94c6.1.544,11.795-3.541,12.689-9.112a8.967,8.967,0,0,0-1.813-7.009,10.744,10.744,0,0,0-7.529-3.94c-.471-.036-.834-.048-1.2-.048Z" transform="translate(-72.61 -64.413)" fill="#c1ec9f"/><path d="M173.106,223.41H101.443L94.18,323.5h86.189Z" transform="translate(-77.684 -62.32)" fill="#9bed49"/><path d="M110.954,223.41h-9.511L94.18,323.5h19.287Z" transform="translate(-77.684 -62.32)" fill="#263238" opacity="0.3"/><rect width="21.269" height="157.187" transform="translate(166.625 24.713)" fill="#1dab52"/><path d="M239.679,180.2H218.41v41.076l21.269-2.622Z" transform="translate(-51.785 -71.328)" fill="#263238" opacity="0.3"/><path d="M239.679,111.45H218.41V123.4l21.269-2.622Z" transform="translate(-51.785 -85.661)" fill="#263238" opacity="0.3"/><path d="M182.276,220.222l-5.934-86.1a5.305,5.305,0,0,1,5.293-5.668H313.855a5.293,5.293,0,0,1,5.293,4.931l5.922,86.1a5.293,5.293,0,0,1-5.293,5.668H187.557a5.281,5.281,0,0,1-5.281-4.931Z" transform="translate(-60.558 -82.117)" fill="#263238"/><path d="M311.633,131.7H182.676a3,3,0,0,0-2.985,3.2l5.7,82.853a3,3,0,0,0,2.985,2.792H317.337a3,3,0,0,0,3-3.2l-5.7-82.865A3,3,0,0,0,311.633,131.7Z" transform="translate(-59.859 -81.439)" fill="#9bed49"/><path d="M311.633,131.7H182.676a3,3,0,0,0-2.985,3.2l5.7,82.853a3,3,0,0,0,2.985,2.792H317.337a3,3,0,0,0,3-3.2l-5.7-82.865A3,3,0,0,0,311.633,131.7Z" transform="translate(-59.859 -81.439)" fill="#fff" opacity="0.8"/><rect width="113.186" height="2.876" transform="translate(139.893 179.012)" fill="#263238"/><path d="M279.389,209.023H194.215L189.49,140.43h85.173Z" transform="translate(-57.814 -79.619)" fill="#9bed49" opacity="0.3"/><path d="M288.062,146.569H265.113l-.423-6.139h22.949Z" transform="translate(-42.137 -79.619)" fill="#9bed49" opacity="0.3"/><path d="M289.6,169H266.646l-1.2-17.5H288.4Z" transform="translate(-41.978 -77.312)" fill="#9bed49" opacity="0.3"/><rect width="42.792" height="31.94" transform="translate(155.229)" fill="#1dab52"/><rect width="17.801" height="31.94" transform="translate(155.229)" fill="#263238" opacity="0.3"/></g><g transform="translate(278.179 84.223)"><path d="M320.963,204.622l2.356-3.009a4.435,4.435,0,0,1,3.71-1.692l6.719.3a8.351,8.351,0,0,1,6.6,3.807l.894,1.4c-3.626,5.257-11.323,8.3-11.323,8.3l-2.1,1.112a3.7,3.7,0,0,1-5.063-1.438l-2.26-4.157a4.254,4.254,0,0,1,.471-4.628Z" transform="translate(-223.141 -60.104)" fill="#fea47b"/><path d="M342.937,154.5c.7.858,1.208,1.462,1.716,2.187s1.015,1.39,1.511,2.079c.991,1.4,1.9,2.828,2.8,4.254a100.961,100.961,0,0,1,4.834,8.919c.749,1.523,1.426,3.094,2.115,4.665s1.269,3.178,1.825,4.834a77.936,77.936,0,0,1,2.8,10.067l.133.556a5.392,5.392,0,0,1,.121,1.208,17.293,17.293,0,0,1-1.208,6.308,22.466,22.466,0,0,1-2.6,4.7,31.772,31.772,0,0,1-6.26,6.332,47.734,47.734,0,0,1-6.743,4.326,48.9,48.9,0,0,1-7.251,3.13,4.556,4.556,0,0,1-4.677-7.553l.3-.29c1.486-1.486,3.2-3.094,4.689-4.665a56.66,56.66,0,0,0,4.157-4.773,21.754,21.754,0,0,0,2.84-4.532c.6-1.354.532-2.417.35-2.417l.254,1.716c-.906-2.61-1.873-5.2-3.045-7.771s-2.417-5.1-3.819-7.613-2.84-4.979-4.4-7.4c-.773-1.208-1.571-2.417-2.417-3.625l-1.208-1.74-1.112-1.571-.29-.411a9.064,9.064,0,0,1,14.429-10.937Z" transform="translate(-221.731 -70.25)" fill="#fea47b"/><path d="M326.769,145.463c-3.408,7.734-3.19,17.39,7.251,32.158,6.937.761,19.771-8.254,19.771-8.254S344.98,144.654,326.769,145.463Z" transform="translate(-222.143 -71.46)" fill="#1dab52"/><path d="M325.774,123.21c-2.018,7.493-4.508,21.221.35,26.212,0,0-7.094-1.063-22.151,8.254-4.363-6.26-1.124-8.254-1.124-8.254,8.459-1.994,8.749-8.181,7.722-14.006Z" transform="translate(-226.961 -76.095)" fill="#fea47b"/><path d="M296.26,151.509c2.236-4.834,7.5-9.438,11.142-8.749s5.849,1.825,8,0,7.468-4.483,10.175-1.474c3.807,4.206,9.571,1.208,7.4,5.813C330.629,152.1,296.26,151.509,296.26,151.509Z" transform="translate(-228.094 -72.611)" fill="#9bed49"/><path d="M299.5,112.164c-.145,1.027-.8,1.825-1.45,1.776s-1.064-.918-.919-1.946.8-1.813,1.45-1.764S299.661,111.161,299.5,112.164Z" transform="translate(-227.917 -78.801)" fill="#263238"/><path d="M298.956,110.442l-2.3-.882S297.615,111.566,298.956,110.442Z" transform="translate(-228.01 -78.941)" fill="#263238"/><path d="M299.69,113.43a30.217,30.217,0,0,1-4.52,6.272c1.148,1.354,3.48.943,3.48.943Z" transform="translate(-228.321 -78.134)" fill="#ff7a52"/><path d="M297.695,105.238a.6.6,0,0,1-.073-.435.616.616,0,0,1,.749-.4,6.284,6.284,0,0,1,4.351,3.529.532.532,0,0,1-.375.725.652.652,0,0,1-.785-.375,5.039,5.039,0,0,0-3.48-2.755A.677.677,0,0,1,297.695,105.238Z" transform="translate(-227.813 -80.02)" fill="#263238"/><path d="M333.148,114.071c-2.284,12.085-2.985,17.245-9.885,23.046-10.381,8.737-24.653,4.121-26.006-8.218-1.208-11.094,2.695-29,15.154-33a15.71,15.71,0,0,1,20.737,18.175Z" transform="translate(-227.93 -81.99)" fill="#fea47b"/><path d="M305.719,118.93c-4.375-6.852-9.112-15.408-6.139-21.354s9.728-4.532,9.728-4.532,13.088-7.348,24.81,2.224c15.541,12.725-1.124,26.732-5.245,38.865C324.318,147.487,300.825,131.317,305.719,118.93Z" transform="translate(-227.595 -82.946)" fill="#263238"/><path d="M367.183,98c-6.32-23.5-34.043-12.7-42.1,1.208l3.287.858c33.076-21.342,16.786,9.511,17.064,22.091S358.18,142.48,358.18,142.48,373.492,121.489,367.183,98Z" transform="translate(-222.086 -84.223)" fill="#263238"/><path d="M358.033,137.722c-3.529,0-8.459-.665-11.674-3.915-2.9-2.937-3.807-7.42-2.671-13.293.363-1.861.943-4.048,1.547-6.357,1.909-7.251,4.29-16.169.544-19.336-2.635-2.236-8.181-1.45-16.5,2.308a.29.29,0,0,1-.4-.145.3.3,0,0,1,.157-.4c8.653-3.928,14.26-4.653,17.124-2.224,4.036,3.408,1.716,12.194-.338,19.952-.616,2.3-1.208,4.471-1.547,6.32-1.088,5.7-.242,10.006,2.514,12.8,5.136,5.2,15.336,3.432,15.444,3.408a.306.306,0,0,1,.1.6,27.724,27.724,0,0,1-4.3.278Z" transform="translate(-221.298 -82.401)" fill="#263238"/><path d="M329.579,92.494c.3-1.535-3.565-.894-3.746.471s-.689.6-2.2,2.6-1.716,4.338,3.239,5.885c3.142.979,3.625-1.438,5.233-2.647.882-.653,1.873-.991,2.514-1.486a1,1,0,0,0-.507-1.789C332.08,95.358,329.265,94,329.579,92.494Z" transform="translate(-222.584 -82.684)" fill="#9bed49"/><path d="M307.822,118.851a8.459,8.459,0,0,1-5.341,4.278c-2.84.628-3.915-2.647-2.84-5.837.967-2.852,3.625-6.635,6.332-5.813S309.357,116.084,307.822,118.851Z" transform="translate(-227.474 -78.564)" fill="#fea47b"/><path d="M350.008,424.516c9.39-1.4,9.571-2.961,14.611-4.725,4.314-1.523,5.523-1.305,9-2.477,2.912-.979,1.922-3.746,0-6.695-.955-1.474-1.1-2.876-2.151-5.5L357.2,407.235c-1.378,3.988-1.873,9.088-10.018,12C342.334,420.975,346.225,425.072,350.008,424.516Z" transform="translate(-217.95 -17.323)" fill="#072c35"/><path d="M277.865,423.424c9.342,0,11.13-.616,16.387-.8,4.5-.157,5.233.8,9.789.8,3.021,0,3.444-3.408,2.332-5.958-.858-1.982-.991-4.363-1.619-6.937h-12.87c-2.32,4.073-8.653,7.094-15.71,7.6C271.1,418.506,274.107,423.424,277.865,423.424Z" transform="translate(-232.841 -16.195)" fill="#072c35"/><path d="M286.215,210.63s-1.861,67.167,2.127,109.826c-.254,40.037.979,131.724.979,131.724.314,2.042,11.045,1.209,12.87,0,0,0,20.121-66.792,11.19-131.724C335.726,252.709,330.9,210.63,330.9,210.63Z" transform="translate(-230.279 -57.87)" fill="#072c35"/><path d="M297.23,210.636s21.825,75.808,30.671,113.041c9.305,39.094,36.955,98.2,39.251,124.111,2.417.955,10.139-.109,14.272-2.115,0,0-3.782-82.624-26.26-120.268C360.24,232.788,335.1,210.6,335.1,210.6Z" transform="translate(-227.892 -57.876)" fill="#072c35"/><path d="M353.551,403.22a37.635,37.635,0,0,1,.278,5.354,1.124,1.124,0,0,0,1.124,1.208c5.341,0,12.725-2.272,15.058-3.07a1.088,1.088,0,0,0,.749-1.027v-5.064a1.124,1.124,0,0,0-1.305-1.1l-15.033,2.526A1.088,1.088,0,0,0,353.551,403.22Z" transform="translate(-216.151 -18.493)" fill="#9bed49"/><path d="M287.534,406.039c0,1.39-.121,3.867-.254,5.692a1.209,1.209,0,0,0,1.027,1.209,76.423,76.423,0,0,0,14.2-.157,1.039,1.039,0,0,0,.931-.846l.967-4.991a1.209,1.209,0,0,0-1.1-1.366L288.633,405a1.039,1.039,0,0,0-1.1,1.039Z" transform="translate(-229.966 -17.349)" fill="#9bed49"/><path d="M283.766,164.041A230.309,230.309,0,0,0,284.1,187.5c.4,10.187,1.1,20.206,2.562,36.907h51.276c-1.027-14.441.653-30.9,9.861-63.4a11.964,11.964,0,0,0-10.224-15.553c-2.03-.205-4.193-.375-6.4-.483a164.255,164.255,0,0,0-23.275,0c-2.538.23-5.16.556-7.662.906A19.336,19.336,0,0,0,283.766,164.041Z" transform="translate(-230.73 -71.644)" fill="#1dab52"/><path d="M338.171,205.38c-10.26,2.622-25.874,3.372-51.505.64.616,13.6-5.366,105.017-5.366,105.017s51.965,11.42,81.343-4.085C364.54,237.864,338.171,205.38,338.171,205.38Z" transform="translate(-231.213 -58.964)" fill="#1dab52"/><path d="M312.13,254.813s14.1-13.136,21.064-22.1C332.638,242.112,324.239,250.547,312.13,254.813Z" transform="translate(-224.785 -53.267)" opacity="0.2"/><path d="M249.4,160.7l3.408,1.728a4.447,4.447,0,0,1,2.417,3.311l1,6.647a8.29,8.29,0,0,1-2.417,7.251l-1.208,1.208c-5.849-2.489-10.345-9.487-10.345-9.487l-1.5-1.849a3.7,3.7,0,0,1,.423-5.257l3.625-3.021A4.254,4.254,0,0,1,249.4,160.7Z" transform="translate(-239.853 -68.372)" fill="#fea47b"/><path d="M309.043,163.7c-.375,1.039-.653,1.764-.979,2.6s-.677,1.583-1.015,2.417c-.677,1.571-1.426,3.082-2.187,4.592a93.943,93.943,0,0,1-5.1,8.8c-.918,1.426-1.9,2.828-2.888,4.218s-2.054,2.743-3.178,4.061A75.734,75.734,0,0,1,286.541,198l-.338.326a6.164,6.164,0,0,1-1,.773,13.812,13.812,0,0,1-4.834,1.861,15.229,15.229,0,0,1-4.326.169,21.852,21.852,0,0,1-6.357-1.764,39.878,39.878,0,0,1-8.737-5.5,69.339,69.339,0,0,1-6.84-6.4,73.137,73.137,0,0,1-5.885-7.082,4.544,4.544,0,0,1,6.163-6.477l.205.133c2.248,1.462,4.628,3.057,6.949,4.483s4.665,2.816,6.961,3.988a31.785,31.785,0,0,0,6.477,2.622,4.919,4.919,0,0,0,2.018.193c.157,0,.145-.121,0-.121a1.885,1.885,0,0,0-.822.218l-1.329,1.112c1.764-2.127,3.48-4.3,5.064-6.635s3.118-4.725,4.532-7.251,2.792-5.015,4.06-7.6c.64-1.281,1.209-2.586,1.849-3.879l.858-1.934.773-1.752.205-.459a9.064,9.064,0,0,1,16.834,6.683Z" transform="translate(-238.291 -70.169)" fill="#fea47b"/><path d="M302.634,145.49c-8.375,1.088-16.52,6.284-23.735,22.889,2.949,6.332,17.305,12.653,17.305,12.653S312.762,160.608,302.634,145.49Z" transform="translate(-231.713 -71.45)" fill="#1dab52"/></g></g></svg>